<svg width="76" height="110" viewBox="0 0 76 110" fill="none" xmlns="http://www.w3.org/2000/svg">
<g id="jetpack icon">
<rect id="Rectangle 4" x="10.2122" y="1" width="55.5758" height="71.3333" rx="13" fill="#7135BD" stroke="#151515" stroke-width="2"/>
<path id="Polygon 3" d="M17.8799 104.584L13.8181 108.595L9.7562 104.584L7.95322 101.913L6.09912 96.4211L5.66956 91.9876L13.8181 88.1868L21.9667 91.9876L21.537 96.421L19.6829 101.913L17.8799 104.584Z" fill="#D5B02B" stroke="#151515" stroke-width="2"/>
<path id="Polygon 4" d="M66.2437 104.584L62.1819 108.595L58.12 104.584L56.317 101.913L54.4629 96.4211L54.0333 91.9876L62.1818 88.1868L70.3305 91.9876L69.9008 96.421L68.0467 101.913L66.2437 104.584Z" fill="#D5B02B" stroke="#151515" stroke-width="2"/>
<path id="Polygon 1" d="M3.37702 92.9584L13.8182 68.9645L24.2593 92.9584H3.37702Z" fill="#D3C1D2" stroke="#151515" stroke-width="2"/>
<path id="Polygon 2" d="M51.7406 92.9584L62.1817 68.9645L72.6229 92.9584H51.7406Z" fill="#D3C1D2" stroke="#151515" stroke-width="2"/>
<path id="Rectangle 5" d="M3.30298 27.5568C3.30298 21.7494 8.01077 17.0416 13.8181 17.0416C19.6255 17.0416 24.3333 21.7494 24.3333 27.5568V81.5H3.30298V27.5568Z" fill="#7135BD" stroke="#151515" stroke-width="2"/>
<path id="Rectangle 6" d="M51.6667 27.5568C51.6667 21.7494 56.3745 17.0416 62.1819 17.0416C67.9893 17.0416 72.697 21.7494 72.697 27.5568V81.5H51.6667V27.5568Z" fill="#7135BD" stroke="#151515" stroke-width="2"/>
<path id="Ellipse 2" d="M47.3637 17.1875C47.3637 22.326 43.1762 26.5 38.0001 26.5C32.824 26.5 28.6365 22.326 28.6365 17.1875C28.6365 12.049 32.824 7.875 38.0001 7.875C43.1762 7.875 47.3637 12.049 47.3637 17.1875Z" fill="#D3C1D2" stroke="#151515" stroke-width="2"/>
</g>
</svg>
